<svg xmlns="http://www.w3.org/2000/svg" viewBox="0 0 512 512" width="100%" height="100%">
  <title>AsterDrive App Icon</title>

  <defs>
    <mask id="mask-orbit-back">
      <rect width="100%" height="100%" fill="white" />
      <path d="M 106 406 L 256 106 L 406 406"
            fill="none" stroke="black" stroke-width="56"
            stroke-linecap="round" stroke-linejoin="round" />
      <path d="M 256 226 Q 256 296 326 296 Q 256 296 256 366 Q 256 296 186 296 Q 256 296 256 226 Z"
            fill="black" stroke="black" stroke-width="16" stroke-linejoin="round" />
    </mask>

    <mask id="mask-a-star">
      <rect width="100%" height="100%" fill="white" />
      <path d="M 406 296 A 150 50 0 0 1 106 296"
            fill="none" stroke="black" stroke-width="32" stroke-linecap="butt" />
    </mask>
  </defs>

  <circle cx="256" cy="256" r="256" fill="#0F172A" />

  <path d="M 106 296 A 150 50 0 0 1 406 296"
        fill="none" stroke="#3B82F6" stroke-width="16"
        stroke-linecap="round" mask="url(#mask-orbit-back)" />

  <g mask="url(#mask-a-star)">
    <path d="M 106 406 L 256 106 L 406 406"
          fill="none" stroke="#F8FAFC" stroke-width="40"
          stroke-linecap="round" stroke-linejoin="round" />
    <path d="M 256 226 Q 256 296 326 296 Q 256 296 256 366 Q 256 296 186 296 Q 256 296 256 226 Z"
          fill="#3B82F6" />
  </g>

  <path d="M 406 296 A 150 50 0 0 1 106 296"
        fill="none" stroke="#3B82F6" stroke-width="16" stroke-linecap="round" />
</svg>
