<?xml version="1.0" encoding="UTF-8"?>
<!-- Generated by Pixelmator Pro 3.7 -->
<svg width="500" height="500" viewBox="0 0 500 500" xmlns="http://www.w3.org/2000/svg">
    <radialGradient id="radialGradient1" cx="13.119278" cy="157.002778" r="152.244039" fx="13.119278" fy="157.002778" gradientUnits="userSpaceOnUse">
        <stop offset="1e-05" stop-color="#4894fe" stop-opacity="1"/>
        <stop offset="0.695072" stop-color="#0934b3" stop-opacity="1"/>
    </radialGradient>
    <path id="Path" fill="url(#radialGradient1)" stroke="none" d="M 139.738892 138.987488 C 64.358475 138.988892 8.012486 200.693054 3.770611 269.431946 C 6.396528 284.243042 15.027361 313.490295 28.543333 311.988892 C 45.438332 310.111084 87.988747 311.988892 124.28167 246.286102 C 150.793045 198.290283 205.330551 138.986115 139.738892 138.987488 Z"/>
    <radialGradient id="radialGradient2" cx="430.297222" cy="-21.927917" r="773.641467" fx="430.297222" fy="-21.927917" gradientUnits="userSpaceOnUse">
        <stop offset="0.165327" stop-color="#23c0fe" stop-opacity="1"/>
        <stop offset="0.534" stop-color="#1c91ff" stop-opacity="1"/>
    </radialGradient>
    <path id="path1" fill="url(#radialGradient2)" stroke="none" d="M 122.300133 164.636108 C 96.961945 204.754181 62.85458 262.237488 51.343197 280.327759 C 37.659859 301.829163 1.421625 292.694458 4.423695 261.873596 C 4.12775 264.376404 3.900444 266.898621 3.743722 269.4375 C -1.213643 349.625 62.363335 416.216675 141.476395 416.216675 C 228.670837 416.216675 436.62085 307.576385 415.576385 198.723602 C 393.395813 134.737366 331.051361 88.843475 260.397217 88.843475 C 189.743057 88.843475 144.461121 129.548889 122.300133 164.636108 Z"/>
    <radialGradient id="radialGradient3" cx="113.95" cy="165.840278" r="151.679911" fx="113.95" fy="165.840278" gradientUnits="userSpaceOnUse">
        <stop offset="1e-05" stop-color="#ffffff" stop-opacity="0.4"/>
        <stop offset="0.660528" stop-color="#adc0ff" stop-opacity="0"/>
    </radialGradient>
    <path id="path2" fill="url(#radialGradient3)" stroke="none" d="M 122.300133 164.636108 C 96.961945 204.754181 62.85458 262.237488 51.343197 280.327759 C 37.659859 301.829163 1.421625 292.694458 4.423695 261.873596 C 4.12775 264.376404 3.900444 266.898621 3.743722 269.4375 C -1.213643 349.625 62.363335 416.216675 141.476395 416.216675 C 228.670837 416.216675 436.62085 307.576385 415.576385 198.723602 C 393.395813 134.737366 331.051361 88.843475 260.397217 88.843475 C 189.743057 88.843475 144.461121 129.548889 122.300133 164.636108 Z"/>
    <radialGradient id="radialGradient4" cx="261.681944" cy="326.419444" r="171.121175" fx="261.681944" fy="326.419444" gradientUnits="userSpaceOnUse">
        <stop offset="1e-05" stop-color="#033acc" stop-opacity="1"/>
        <stop offset="1" stop-color="#368eff" stop-opacity="0"/>
    </radialGradient>
    <path id="path3" fill="url(#radialGradient4)" stroke="none" d="M 122.300133 164.636108 C 96.961945 204.754181 62.85458 262.237488 51.343197 280.327759 C 37.659859 301.829163 1.421625 292.694458 4.423695 261.873596 C 4.12775 264.376404 3.900444 266.898621 3.743722 269.4375 C -1.213643 349.625 62.363335 416.216675 141.476395 416.216675 C 228.670837 416.216675 436.62085 307.576385 415.576385 198.723602 C 393.395813 134.737366 331.051361 88.843475 260.397217 88.843475 C 189.743057 88.843475 144.461121 129.548889 122.300133 164.636108 Z"/>
    <radialGradient id="radialGradient5" cx="104.957639" cy="78.486111" r="411.782139" fx="104.957639" fy="78.486111" gradientUnits="userSpaceOnUse">
        <stop offset="0.592618" stop-color="#3464e3" stop-opacity="0"/>
        <stop offset="1" stop-color="#033acc" stop-opacity="0.6"/>
    </radialGradient>
    <path id="path4" fill="url(#radialGradient5)" stroke="none" d="M 122.300133 164.636108 C 96.961945 204.754181 62.85458 262.237488 51.343197 280.327759 C 37.659859 301.829163 1.421625 292.694458 4.423695 261.873596 C 4.12775 264.376404 3.900444 266.898621 3.743722 269.4375 C -1.213643 349.625 62.363335 416.216675 141.476395 416.216675 C 228.670837 416.216675 436.62085 307.576385 415.576385 198.723602 C 393.395813 134.737366 331.051361 88.843475 260.397217 88.843475 C 189.743057 88.843475 144.461121 129.548889 122.300133 164.636108 Z"/>
    <radialGradient id="radialGradient6" cx="424.909722" cy="12.970208" r="563.124217" fx="424.909722" fy="12.970208" gradientUnits="userSpaceOnUse">
        <stop offset="1e-05" stop-color="#4bfde8" stop-opacity="0.9"/>
        <stop offset="0.543937" stop-color="#4bfde8" stop-opacity="0"/>
    </radialGradient>
    <path id="path5" fill="url(#radialGradient6)" stroke="none" d="M 122.300133 164.636108 C 96.961945 204.754181 62.85458 262.237488 51.343197 280.327759 C 37.659859 301.829163 1.421625 292.694458 4.423695 261.873596 C 4.12775 264.376404 3.900444 266.898621 3.743722 269.4375 C -1.213643 349.625 62.363335 416.216675 141.476395 416.216675 C 228.670837 416.216675 436.62085 307.576385 415.576385 198.723602 C 393.395813 134.737366 331.051361 88.843475 260.397217 88.843475 C 189.743057 88.843475 144.461121 129.548889 122.300133 164.636108 Z"/>
    <linearGradient id="linearGradient1" x1="318.476389" y1="416.434722" x2="318.476389" y2="192.915278" gradientUnits="userSpaceOnUse">
        <stop offset="1e-05" stop-color="#0086ff" stop-opacity="1"/>
        <stop offset="0.49" stop-color="#00bbff" stop-opacity="1"/>
    </linearGradient>
    <path id="path6" fill="url(#linearGradient1)" stroke="none" d="M 140.204163 416.254181 C 140.204163 416.254181 348.398621 416.663879 383.712494 416.663879 C 447.799988 416.663879 496.527771 364.341675 496.527771 303.288879 C 496.527771 242.234741 446.822205 190.229156 383.713867 190.229156 C 320.604156 190.229156 284.261108 237.443054 256.965271 288.979156 C 224.977783 349.369446 184.175003 415.530548 140.204163 416.254181 Z"/>
    <radialGradient id="radialGradient7" cx="201.675" cy="216.859722" r="245.411919" fx="201.675" fy="216.859722" gradientUnits="userSpaceOnUse">
        <stop offset="1e-05" stop-color="#ffffff" stop-opacity="0.4"/>
        <stop offset="0.785262" stop-color="#ffffff" stop-opacity="0"/>
    </radialGradient>
    <path id="path7" fill="url(#radialGradient7)" stroke="none" d="M 140.204163 416.254181 C 140.204163 416.254181 348.398621 416.663879 383.712494 416.663879 C 447.799988 416.663879 496.527771 364.341675 496.527771 303.288879 C 496.527771 242.234741 446.822205 190.229156 383.713867 190.229156 C 320.604156 190.229156 284.261108 237.443054 256.965271 288.979156 C 224.977783 349.369446 184.175003 415.530548 140.204163 416.254181 Z"/>
    <radialGradient id="radialGradient8" cx="489.5625" cy="172.679167" r="391.929649" fx="489.5625" fy="172.679167" gradientUnits="userSpaceOnUse">
        <stop offset="1e-05" stop-color="#4bfde8" stop-opacity="0.9"/>
        <stop offset="0.584724" stop-color="#4bfde8" stop-opacity="0"/>
    </radialGradient>
    <path id="path8" fill="url(#radialGradient8)" stroke="none" d="M 140.204163 416.254181 C 140.204163 416.254181 348.398621 416.663879 383.712494 416.663879 C 447.799988 416.663879 496.527771 364.341675 496.527771 303.288879 C 496.527771 242.234741 446.822205 190.229156 383.713867 190.229156 C 320.604156 190.229156 284.261108 237.443054 256.965271 288.979156 C 224.977783 349.369446 184.175003 415.530548 140.204163 416.254181 Z"/>
</svg>
